<mxfile host="app.diagrams.net" modified="2021-04-03T16:44:19.996Z" agent="5.0 (X11; Linux x86_64) AppleWebKit/537.36 (KHTML, like Gecko) Chrome/89.0.4389.114 Safari/537.36" etag="MtuQ0uOz4y-MoHGR3FI7" version="14.5.6" type="github">
  <diagram id="C5RBs43oDa-KdzZeNtuy" name="Page-1">
    <mxGraphModel dx="936" dy="500" grid="1" gridSize="10" guides="1" tooltips="1" connect="1" arrows="1" fold="1" page="1" pageScale="1" pageWidth="827" pageHeight="1169" math="0" shadow="0">
      <root>
        <mxCell id="WIyWlLk6GJQsqaUBKTNV-0" />
        <mxCell id="WIyWlLk6GJQsqaUBKTNV-1" parent="WIyWlLk6GJQsqaUBKTNV-0" />
        <mxCell id="lphjbVHuEzb35gzsoEak-91" value="Users" style="shape=table;startSize=30;container=1;collapsible=1;childLayout=tableLayout;fixedRows=1;rowLines=0;fontStyle=1;align=center;resizeLast=1;" vertex="1" parent="WIyWlLk6GJQsqaUBKTNV-1">
          <mxGeometry x="40" y="190" width="240" height="330" as="geometry" />
        </mxCell>
        <mxCell id="lphjbVHuEzb35gzsoEak-95" value="" style="shape=partialRectangle;collapsible=0;dropTarget=0;pointerEvents=0;fillColor=none;top=0;left=0;bottom=1;right=0;points=[[0,0.5],[1,0.5]];portConstraint=eastwest;" vertex="1" parent="lphjbVHuEzb35gzsoEak-91">
          <mxGeometry y="30" width="240" height="30" as="geometry" />
        </mxCell>
        <mxCell id="lphjbVHuEzb35gzsoEak-96" value="id" style="shape=partialRectangle;connectable=0;fillColor=none;top=0;left=0;bottom=0;right=0;fontStyle=1;overflow=hidden;" vertex="1" parent="lphjbVHuEzb35gzsoEak-95">
          <mxGeometry width="150" height="30" as="geometry" />
        </mxCell>
        <mxCell id="lphjbVHuEzb35gzsoEak-97" value="uuid" style="shape=partialRectangle;connectable=0;fillColor=none;top=0;left=0;bottom=0;right=0;align=left;spacingLeft=6;fontStyle=5;overflow=hidden;" vertex="1" parent="lphjbVHuEzb35gzsoEak-95">
          <mxGeometry x="150" width="90" height="30" as="geometry" />
        </mxCell>
        <mxCell id="lphjbVHuEzb35gzsoEak-107" value="" style="shape=partialRectangle;collapsible=0;dropTarget=0;pointerEvents=0;fillColor=none;top=0;left=0;bottom=1;right=0;points=[[0,0.5],[1,0.5]];portConstraint=eastwest;" vertex="1" parent="lphjbVHuEzb35gzsoEak-91">
          <mxGeometry y="60" width="240" height="30" as="geometry" />
        </mxCell>
        <mxCell id="lphjbVHuEzb35gzsoEak-108" value="name" style="shape=partialRectangle;connectable=0;fillColor=none;top=0;left=0;bottom=0;right=0;fontStyle=1;overflow=hidden;" vertex="1" parent="lphjbVHuEzb35gzsoEak-107">
          <mxGeometry width="150" height="30" as="geometry" />
        </mxCell>
        <mxCell id="lphjbVHuEzb35gzsoEak-109" value="string" style="shape=partialRectangle;connectable=0;fillColor=none;top=0;left=0;bottom=0;right=0;align=left;spacingLeft=6;fontStyle=5;overflow=hidden;" vertex="1" parent="lphjbVHuEzb35gzsoEak-107">
          <mxGeometry x="150" width="90" height="30" as="geometry" />
        </mxCell>
        <mxCell id="lphjbVHuEzb35gzsoEak-104" value="" style="shape=partialRectangle;collapsible=0;dropTarget=0;pointerEvents=0;fillColor=none;top=0;left=0;bottom=1;right=0;points=[[0,0.5],[1,0.5]];portConstraint=eastwest;" vertex="1" parent="lphjbVHuEzb35gzsoEak-91">
          <mxGeometry y="90" width="240" height="30" as="geometry" />
        </mxCell>
        <mxCell id="lphjbVHuEzb35gzsoEak-105" value="email" style="shape=partialRectangle;connectable=0;fillColor=none;top=0;left=0;bottom=0;right=0;fontStyle=1;overflow=hidden;" vertex="1" parent="lphjbVHuEzb35gzsoEak-104">
          <mxGeometry width="150" height="30" as="geometry" />
        </mxCell>
        <mxCell id="lphjbVHuEzb35gzsoEak-106" value="string" style="shape=partialRectangle;connectable=0;fillColor=none;top=0;left=0;bottom=0;right=0;align=left;spacingLeft=6;fontStyle=5;overflow=hidden;" vertex="1" parent="lphjbVHuEzb35gzsoEak-104">
          <mxGeometry x="150" width="90" height="30" as="geometry" />
        </mxCell>
        <mxCell id="lphjbVHuEzb35gzsoEak-110" value="" style="shape=partialRectangle;collapsible=0;dropTarget=0;pointerEvents=0;fillColor=none;top=0;left=0;bottom=1;right=0;points=[[0,0.5],[1,0.5]];portConstraint=eastwest;" vertex="1" parent="lphjbVHuEzb35gzsoEak-91">
          <mxGeometry y="120" width="240" height="30" as="geometry" />
        </mxCell>
        <mxCell id="lphjbVHuEzb35gzsoEak-111" value="cpf" style="shape=partialRectangle;connectable=0;fillColor=none;top=0;left=0;bottom=0;right=0;fontStyle=1;overflow=hidden;" vertex="1" parent="lphjbVHuEzb35gzsoEak-110">
          <mxGeometry width="150" height="30" as="geometry" />
        </mxCell>
        <mxCell id="lphjbVHuEzb35gzsoEak-112" value="string" style="shape=partialRectangle;connectable=0;fillColor=none;top=0;left=0;bottom=0;right=0;align=left;spacingLeft=6;fontStyle=5;overflow=hidden;" vertex="1" parent="lphjbVHuEzb35gzsoEak-110">
          <mxGeometry x="150" width="90" height="30" as="geometry" />
        </mxCell>
        <mxCell id="lphjbVHuEzb35gzsoEak-115" value="" style="shape=partialRectangle;collapsible=0;dropTarget=0;pointerEvents=0;fillColor=none;top=0;left=0;bottom=1;right=0;points=[[0,0.5],[1,0.5]];portConstraint=eastwest;" vertex="1" parent="lphjbVHuEzb35gzsoEak-91">
          <mxGeometry y="150" width="240" height="30" as="geometry" />
        </mxCell>
        <mxCell id="lphjbVHuEzb35gzsoEak-116" value="address" style="shape=partialRectangle;connectable=0;fillColor=none;top=0;left=0;bottom=0;right=0;fontStyle=1;overflow=hidden;" vertex="1" parent="lphjbVHuEzb35gzsoEak-115">
          <mxGeometry width="150" height="30" as="geometry" />
        </mxCell>
        <mxCell id="lphjbVHuEzb35gzsoEak-117" value="string" style="shape=partialRectangle;connectable=0;fillColor=none;top=0;left=0;bottom=0;right=0;align=left;spacingLeft=6;fontStyle=5;overflow=hidden;" vertex="1" parent="lphjbVHuEzb35gzsoEak-115">
          <mxGeometry x="150" width="90" height="30" as="geometry" />
        </mxCell>
        <mxCell id="lphjbVHuEzb35gzsoEak-118" value="" style="shape=partialRectangle;collapsible=0;dropTarget=0;pointerEvents=0;fillColor=none;top=0;left=0;bottom=1;right=0;points=[[0,0.5],[1,0.5]];portConstraint=eastwest;" vertex="1" parent="lphjbVHuEzb35gzsoEak-91">
          <mxGeometry y="180" width="240" height="30" as="geometry" />
        </mxCell>
        <mxCell id="lphjbVHuEzb35gzsoEak-119" value="phone" style="shape=partialRectangle;connectable=0;fillColor=none;top=0;left=0;bottom=0;right=0;fontStyle=1;overflow=hidden;" vertex="1" parent="lphjbVHuEzb35gzsoEak-118">
          <mxGeometry width="150" height="30" as="geometry" />
        </mxCell>
        <mxCell id="lphjbVHuEzb35gzsoEak-120" value="string" style="shape=partialRectangle;connectable=0;fillColor=none;top=0;left=0;bottom=0;right=0;align=left;spacingLeft=6;fontStyle=5;overflow=hidden;" vertex="1" parent="lphjbVHuEzb35gzsoEak-118">
          <mxGeometry x="150" width="90" height="30" as="geometry" />
        </mxCell>
        <mxCell id="lphjbVHuEzb35gzsoEak-190" value="" style="shape=partialRectangle;collapsible=0;dropTarget=0;pointerEvents=0;fillColor=none;top=0;left=0;bottom=1;right=0;points=[[0,0.5],[1,0.5]];portConstraint=eastwest;" vertex="1" parent="lphjbVHuEzb35gzsoEak-91">
          <mxGeometry y="210" width="240" height="30" as="geometry" />
        </mxCell>
        <mxCell id="lphjbVHuEzb35gzsoEak-191" value="[FK]courses_educator" style="shape=partialRectangle;connectable=0;fillColor=none;top=0;left=0;bottom=0;right=0;fontStyle=1;overflow=hidden;" vertex="1" parent="lphjbVHuEzb35gzsoEak-190">
          <mxGeometry width="150" height="30" as="geometry" />
        </mxCell>
        <mxCell id="lphjbVHuEzb35gzsoEak-192" value="uuid [ ]" style="shape=partialRectangle;connectable=0;fillColor=none;top=0;left=0;bottom=0;right=0;align=left;spacingLeft=6;fontStyle=5;overflow=hidden;" vertex="1" parent="lphjbVHuEzb35gzsoEak-190">
          <mxGeometry x="150" width="90" height="30" as="geometry" />
        </mxCell>
        <mxCell id="lphjbVHuEzb35gzsoEak-193" value="" style="shape=partialRectangle;collapsible=0;dropTarget=0;pointerEvents=0;fillColor=none;top=0;left=0;bottom=1;right=0;points=[[0,0.5],[1,0.5]];portConstraint=eastwest;" vertex="1" parent="lphjbVHuEzb35gzsoEak-91">
          <mxGeometry y="240" width="240" height="30" as="geometry" />
        </mxCell>
        <mxCell id="lphjbVHuEzb35gzsoEak-194" value="[FK]couses_student" style="shape=partialRectangle;connectable=0;fillColor=none;top=0;left=0;bottom=0;right=0;fontStyle=1;overflow=hidden;" vertex="1" parent="lphjbVHuEzb35gzsoEak-193">
          <mxGeometry width="150" height="30" as="geometry" />
        </mxCell>
        <mxCell id="lphjbVHuEzb35gzsoEak-195" value="uuid [ ]" style="shape=partialRectangle;connectable=0;fillColor=none;top=0;left=0;bottom=0;right=0;align=left;spacingLeft=6;fontStyle=5;overflow=hidden;" vertex="1" parent="lphjbVHuEzb35gzsoEak-193">
          <mxGeometry x="150" width="90" height="30" as="geometry" />
        </mxCell>
        <mxCell id="lphjbVHuEzb35gzsoEak-124" value="" style="shape=partialRectangle;collapsible=0;dropTarget=0;pointerEvents=0;fillColor=none;top=0;left=0;bottom=1;right=0;points=[[0,0.5],[1,0.5]];portConstraint=eastwest;" vertex="1" parent="lphjbVHuEzb35gzsoEak-91">
          <mxGeometry y="270" width="240" height="30" as="geometry" />
        </mxCell>
        <mxCell id="lphjbVHuEzb35gzsoEak-125" value="created_at" style="shape=partialRectangle;connectable=0;fillColor=none;top=0;left=0;bottom=0;right=0;fontStyle=1;overflow=hidden;" vertex="1" parent="lphjbVHuEzb35gzsoEak-124">
          <mxGeometry width="150" height="30" as="geometry" />
        </mxCell>
        <mxCell id="lphjbVHuEzb35gzsoEak-126" value="date" style="shape=partialRectangle;connectable=0;fillColor=none;top=0;left=0;bottom=0;right=0;align=left;spacingLeft=6;fontStyle=5;overflow=hidden;" vertex="1" parent="lphjbVHuEzb35gzsoEak-124">
          <mxGeometry x="150" width="90" height="30" as="geometry" />
        </mxCell>
        <mxCell id="lphjbVHuEzb35gzsoEak-127" value="" style="shape=partialRectangle;collapsible=0;dropTarget=0;pointerEvents=0;fillColor=none;top=0;left=0;bottom=1;right=0;points=[[0,0.5],[1,0.5]];portConstraint=eastwest;" vertex="1" parent="lphjbVHuEzb35gzsoEak-91">
          <mxGeometry y="300" width="240" height="30" as="geometry" />
        </mxCell>
        <mxCell id="lphjbVHuEzb35gzsoEak-128" value="updated_at" style="shape=partialRectangle;connectable=0;fillColor=none;top=0;left=0;bottom=0;right=0;fontStyle=1;overflow=hidden;" vertex="1" parent="lphjbVHuEzb35gzsoEak-127">
          <mxGeometry width="150" height="30" as="geometry" />
        </mxCell>
        <mxCell id="lphjbVHuEzb35gzsoEak-129" value="date" style="shape=partialRectangle;connectable=0;fillColor=none;top=0;left=0;bottom=0;right=0;align=left;spacingLeft=6;fontStyle=5;overflow=hidden;" vertex="1" parent="lphjbVHuEzb35gzsoEak-127">
          <mxGeometry x="150" width="90" height="30" as="geometry" />
        </mxCell>
        <mxCell id="lphjbVHuEzb35gzsoEak-130" value="Courses" style="shape=table;startSize=30;container=1;collapsible=1;childLayout=tableLayout;fixedRows=1;rowLines=0;fontStyle=1;align=center;resizeLast=1;" vertex="1" parent="WIyWlLk6GJQsqaUBKTNV-1">
          <mxGeometry x="450" y="190" width="180" height="240" as="geometry" />
        </mxCell>
        <mxCell id="lphjbVHuEzb35gzsoEak-131" value="" style="shape=partialRectangle;collapsible=0;dropTarget=0;pointerEvents=0;fillColor=none;top=0;left=0;bottom=1;right=0;points=[[0,0.5],[1,0.5]];portConstraint=eastwest;" vertex="1" parent="lphjbVHuEzb35gzsoEak-130">
          <mxGeometry y="30" width="180" height="30" as="geometry" />
        </mxCell>
        <mxCell id="lphjbVHuEzb35gzsoEak-132" value="id" style="shape=partialRectangle;connectable=0;fillColor=none;top=0;left=0;bottom=0;right=0;fontStyle=1;overflow=hidden;" vertex="1" parent="lphjbVHuEzb35gzsoEak-131">
          <mxGeometry width="90" height="30" as="geometry" />
        </mxCell>
        <mxCell id="lphjbVHuEzb35gzsoEak-133" value="uuid" style="shape=partialRectangle;connectable=0;fillColor=none;top=0;left=0;bottom=0;right=0;align=left;spacingLeft=6;fontStyle=5;overflow=hidden;" vertex="1" parent="lphjbVHuEzb35gzsoEak-131">
          <mxGeometry x="90" width="90" height="30" as="geometry" />
        </mxCell>
        <mxCell id="lphjbVHuEzb35gzsoEak-134" value="" style="shape=partialRectangle;collapsible=0;dropTarget=0;pointerEvents=0;fillColor=none;top=0;left=0;bottom=1;right=0;points=[[0,0.5],[1,0.5]];portConstraint=eastwest;" vertex="1" parent="lphjbVHuEzb35gzsoEak-130">
          <mxGeometry y="60" width="180" height="30" as="geometry" />
        </mxCell>
        <mxCell id="lphjbVHuEzb35gzsoEak-135" value="name" style="shape=partialRectangle;connectable=0;fillColor=none;top=0;left=0;bottom=0;right=0;fontStyle=1;overflow=hidden;" vertex="1" parent="lphjbVHuEzb35gzsoEak-134">
          <mxGeometry width="90" height="30" as="geometry" />
        </mxCell>
        <mxCell id="lphjbVHuEzb35gzsoEak-136" value="string" style="shape=partialRectangle;connectable=0;fillColor=none;top=0;left=0;bottom=0;right=0;align=left;spacingLeft=6;fontStyle=5;overflow=hidden;" vertex="1" parent="lphjbVHuEzb35gzsoEak-134">
          <mxGeometry x="90" width="90" height="30" as="geometry" />
        </mxCell>
        <mxCell id="lphjbVHuEzb35gzsoEak-137" value="" style="shape=partialRectangle;collapsible=0;dropTarget=0;pointerEvents=0;fillColor=none;top=0;left=0;bottom=1;right=0;points=[[0,0.5],[1,0.5]];portConstraint=eastwest;" vertex="1" parent="lphjbVHuEzb35gzsoEak-130">
          <mxGeometry y="90" width="180" height="30" as="geometry" />
        </mxCell>
        <mxCell id="lphjbVHuEzb35gzsoEak-138" value="description" style="shape=partialRectangle;connectable=0;fillColor=none;top=0;left=0;bottom=0;right=0;fontStyle=1;overflow=hidden;" vertex="1" parent="lphjbVHuEzb35gzsoEak-137">
          <mxGeometry width="90" height="30" as="geometry" />
        </mxCell>
        <mxCell id="lphjbVHuEzb35gzsoEak-139" value="string" style="shape=partialRectangle;connectable=0;fillColor=none;top=0;left=0;bottom=0;right=0;align=left;spacingLeft=6;fontStyle=5;overflow=hidden;" vertex="1" parent="lphjbVHuEzb35gzsoEak-137">
          <mxGeometry x="90" width="90" height="30" as="geometry" />
        </mxCell>
        <mxCell id="lphjbVHuEzb35gzsoEak-158" value="" style="shape=partialRectangle;collapsible=0;dropTarget=0;pointerEvents=0;fillColor=none;top=0;left=0;bottom=1;right=0;points=[[0,0.5],[1,0.5]];portConstraint=eastwest;" vertex="1" parent="lphjbVHuEzb35gzsoEak-130">
          <mxGeometry y="120" width="180" height="30" as="geometry" />
        </mxCell>
        <mxCell id="lphjbVHuEzb35gzsoEak-159" value="[FK]educator" style="shape=partialRectangle;connectable=0;fillColor=none;top=0;left=0;bottom=0;right=0;fontStyle=1;overflow=hidden;" vertex="1" parent="lphjbVHuEzb35gzsoEak-158">
          <mxGeometry width="90" height="30" as="geometry" />
        </mxCell>
        <mxCell id="lphjbVHuEzb35gzsoEak-160" value="uuid" style="shape=partialRectangle;connectable=0;fillColor=none;top=0;left=0;bottom=0;right=0;align=left;spacingLeft=6;fontStyle=5;overflow=hidden;" vertex="1" parent="lphjbVHuEzb35gzsoEak-158">
          <mxGeometry x="90" width="90" height="30" as="geometry" />
        </mxCell>
        <mxCell id="lphjbVHuEzb35gzsoEak-155" value="" style="shape=partialRectangle;collapsible=0;dropTarget=0;pointerEvents=0;fillColor=none;top=0;left=0;bottom=1;right=0;points=[[0,0.5],[1,0.5]];portConstraint=eastwest;" vertex="1" parent="lphjbVHuEzb35gzsoEak-130">
          <mxGeometry y="150" width="180" height="30" as="geometry" />
        </mxCell>
        <mxCell id="lphjbVHuEzb35gzsoEak-156" value="[FK]students" style="shape=partialRectangle;connectable=0;fillColor=none;top=0;left=0;bottom=0;right=0;fontStyle=1;overflow=hidden;" vertex="1" parent="lphjbVHuEzb35gzsoEak-155">
          <mxGeometry width="90" height="30" as="geometry" />
        </mxCell>
        <mxCell id="lphjbVHuEzb35gzsoEak-157" value="uuid [ ]" style="shape=partialRectangle;connectable=0;fillColor=none;top=0;left=0;bottom=0;right=0;align=left;spacingLeft=6;fontStyle=5;overflow=hidden;" vertex="1" parent="lphjbVHuEzb35gzsoEak-155">
          <mxGeometry x="90" width="90" height="30" as="geometry" />
        </mxCell>
        <mxCell id="lphjbVHuEzb35gzsoEak-149" value="" style="shape=partialRectangle;collapsible=0;dropTarget=0;pointerEvents=0;fillColor=none;top=0;left=0;bottom=1;right=0;points=[[0,0.5],[1,0.5]];portConstraint=eastwest;" vertex="1" parent="lphjbVHuEzb35gzsoEak-130">
          <mxGeometry y="180" width="180" height="30" as="geometry" />
        </mxCell>
        <mxCell id="lphjbVHuEzb35gzsoEak-150" value="created_at" style="shape=partialRectangle;connectable=0;fillColor=none;top=0;left=0;bottom=0;right=0;fontStyle=1;overflow=hidden;" vertex="1" parent="lphjbVHuEzb35gzsoEak-149">
          <mxGeometry width="90" height="30" as="geometry" />
        </mxCell>
        <mxCell id="lphjbVHuEzb35gzsoEak-151" value="date" style="shape=partialRectangle;connectable=0;fillColor=none;top=0;left=0;bottom=0;right=0;align=left;spacingLeft=6;fontStyle=5;overflow=hidden;" vertex="1" parent="lphjbVHuEzb35gzsoEak-149">
          <mxGeometry x="90" width="90" height="30" as="geometry" />
        </mxCell>
        <mxCell id="lphjbVHuEzb35gzsoEak-152" value="" style="shape=partialRectangle;collapsible=0;dropTarget=0;pointerEvents=0;fillColor=none;top=0;left=0;bottom=1;right=0;points=[[0,0.5],[1,0.5]];portConstraint=eastwest;" vertex="1" parent="lphjbVHuEzb35gzsoEak-130">
          <mxGeometry y="210" width="180" height="30" as="geometry" />
        </mxCell>
        <mxCell id="lphjbVHuEzb35gzsoEak-153" value="updated_at" style="shape=partialRectangle;connectable=0;fillColor=none;top=0;left=0;bottom=0;right=0;fontStyle=1;overflow=hidden;" vertex="1" parent="lphjbVHuEzb35gzsoEak-152">
          <mxGeometry width="90" height="30" as="geometry" />
        </mxCell>
        <mxCell id="lphjbVHuEzb35gzsoEak-154" value="date" style="shape=partialRectangle;connectable=0;fillColor=none;top=0;left=0;bottom=0;right=0;align=left;spacingLeft=6;fontStyle=5;overflow=hidden;" vertex="1" parent="lphjbVHuEzb35gzsoEak-152">
          <mxGeometry x="90" width="90" height="30" as="geometry" />
        </mxCell>
      </root>
    </mxGraphModel>
  </diagram>
</mxfile>
